<?xml version="1.0" standalone="no"?>
<!DOCTYPE svg PUBLIC "-//W3C//DTD SVG 1.1//EN" "http://www.w3.org/Graphics/SVG/1.1/DTD/svg11.dtd">
<svg width="100%" height="100%" viewBox="0 0 886 68" version="1.1" xmlns="http://www.w3.org/2000/svg" xmlns:xlink="http://www.w3.org/1999/xlink" xml:space="preserve" style="fill-rule:evenodd;clip-rule:evenodd;stroke-linejoin:round;stroke-miterlimit:1.41421;">
    <g transform="matrix(1,0,0,1,-74.6051,-246)">
        <rect x="709" y="246" width="251" height="68" style="fill:rgb(213,0,0);fill-rule:nonzero;"/>
        <path d="M90.927,278.015L102.973,278.015C110.181,278.015 116.599,276.919 116.599,270.69C116.599,264.459 110.181,263.365 102.973,263.365L90.927,263.365L90.927,278.015ZM75.424,255.011L107.219,255.011C124.794,255.011 131.607,262.748 131.607,270.69C131.607,278.633 124.794,286.369 107.219,286.369L90.927,286.369L90.927,303.896L75.424,303.896L75.424,255.011Z" style="fill:black;fill-rule:nonzero;"/>
        <path d="M91.747,277.196L102.973,277.196C111.949,277.196 115.779,275.251 115.779,270.689C115.779,266.129 111.949,264.183 102.973,264.183L91.747,264.183L91.747,277.196ZM102.973,278.834L90.927,278.834C90.475,278.834 90.108,278.468 90.108,278.014L90.108,263.364C90.108,262.91 90.475,262.544 90.927,262.544L102.973,262.544C109.699,262.544 117.418,263.47 117.418,270.689C117.418,277.91 109.699,278.834 102.973,278.834M76.244,303.075L90.108,303.075L90.108,286.368C90.108,285.916 90.475,285.548 90.927,285.548L107.219,285.548C115.092,285.548 121.418,283.925 125.512,280.85C129.873,277.579 130.789,273.519 130.789,270.689C130.789,267.858 129.873,263.8 125.512,260.526C121.418,257.455 115.092,255.83 107.219,255.83L76.244,255.83L76.244,303.075ZM90.927,304.714L75.424,304.714C74.973,304.714 74.605,304.347 74.605,303.895L74.605,255.01C74.605,254.559 74.973,254.191 75.424,254.191L107.219,254.191C125.806,254.191 132.426,262.714 132.426,270.689C132.426,278.665 125.806,287.187 107.219,287.187L91.747,287.187L91.747,303.895C91.747,304.347 91.379,304.714 90.927,304.714" style="fill:black;fill-rule:nonzero;"/>
        <path d="M151.752,284.998L170.02,284.998L161.133,267.06L160.934,267.06L151.752,284.998ZM153.234,255.011L169.13,255.011L195.495,303.895L179.399,303.895L174.068,293.01L147.705,293.01L142.175,303.895L126.475,303.895L153.234,255.011Z" style="fill:black;fill-rule:nonzero;"/>
        <path d="M153.092,284.181L168.699,284.181L161.024,268.687L153.092,284.181ZM170.019,285.819L151.752,285.819C151.467,285.819 151.201,285.669 151.051,285.427C150.904,285.184 150.892,284.879 151.023,284.625L160.206,266.688C160.346,266.413 160.627,266.241 160.934,266.241L161.133,266.241C161.444,266.241 161.728,266.419 161.867,266.697L170.754,284.634C170.879,284.89 170.864,285.191 170.716,285.431C170.565,285.673 170.302,285.819 170.019,285.819M179.91,303.076L194.122,303.076L168.641,255.831L153.718,255.831L127.857,303.076L141.671,303.076L146.972,292.638C147.112,292.365 147.395,292.19 147.704,292.19L174.068,292.19C174.38,292.19 174.665,292.368 174.803,292.649L179.91,303.076ZM195.494,304.714L179.399,304.714C179.088,304.714 178.801,304.536 178.663,304.256L173.556,293.829L148.206,293.829L142.904,304.266C142.765,304.541 142.484,304.714 142.175,304.714L126.474,304.714C126.184,304.714 125.917,304.561 125.769,304.314C125.621,304.064 125.616,303.757 125.756,303.503L152.514,254.618C152.658,254.354 152.934,254.191 153.234,254.191L169.13,254.191C169.432,254.191 169.708,254.358 169.851,254.624L196.215,303.506C196.352,303.76 196.346,304.068 196.199,304.316C196.05,304.564 195.782,304.714 195.494,304.714" style="fill:black;fill-rule:nonzero;"/>
        <path d="M212.578,284.86L186.611,255.01L204.087,255.01L220.577,274.316L236.968,255.01L254.246,255.01L228.079,285.135L228.079,303.895L212.578,303.895L212.578,284.86Z" style="fill:black;fill-rule:nonzero;"/>
        <path d="M213.398,303.075L227.26,303.075L227.26,285.136C227.26,284.938 227.332,284.748 227.461,284.597L252.45,255.83L237.347,255.83L221.201,274.848C221.045,275.032 220.816,275.138 220.576,275.138C220.336,275.138 220.109,275.034 219.952,274.849L203.708,255.83L188.409,255.83L213.196,284.324C213.326,284.473 213.398,284.664 213.398,284.86L213.398,303.075ZM228.079,304.714L212.578,304.714C212.126,304.714 211.759,304.347 211.759,303.895L211.759,285.168L185.991,255.549C185.78,255.307 185.73,254.964 185.863,254.671C185.997,254.379 186.288,254.191 186.61,254.191L204.086,254.191C204.326,254.191 204.554,254.298 204.709,254.478L220.573,273.053L236.343,254.48C236.499,254.298 236.726,254.191 236.968,254.191L254.246,254.191C254.566,254.191 254.859,254.379 254.992,254.671C255.125,254.963 255.076,255.306 254.864,255.548L228.899,285.442L228.899,303.895C228.899,304.347 228.533,304.714 228.079,304.714" style="fill:black;fill-rule:nonzero;"/>
        <path d="M304.367,303.93L290.14,303.93L290.14,271.205L289.947,271.205L261.206,303.93L246.012,303.93L246.012,282.569L260.238,266.159L260.238,287.842L260.431,287.842L289.269,255.047L304.367,255.047L304.367,303.93Z" style="fill:black;fill-rule:nonzero;"/>
        <path d="M290.96,303.113L303.546,303.113L303.546,255.866L289.64,255.866L261.048,288.382C260.89,288.559 260.666,288.662 260.431,288.662L260.238,288.662C259.787,288.662 259.418,288.294 259.418,287.842L259.418,268.354L246.831,282.874L246.831,303.113L260.835,303.113L289.331,270.663C289.487,270.486 289.71,270.385 289.947,270.385L290.14,270.385C290.593,270.385 290.96,270.752 290.96,271.204L290.96,303.113ZM304.367,304.75L290.14,304.75C289.689,304.75 289.321,304.384 289.321,303.929L289.321,273.16L261.822,304.471C261.666,304.649 261.441,304.75 261.207,304.75L246.011,304.75C245.558,304.75 245.192,304.384 245.192,303.929L245.192,282.568C245.192,282.373 245.265,282.181 245.394,282.031L259.618,265.622C259.842,265.363 260.203,265.272 260.524,265.391C260.844,265.51 261.058,265.816 261.058,266.159L261.058,285.888L288.654,254.505C288.811,254.328 289.035,254.226 289.269,254.226L304.367,254.226C304.819,254.226 305.186,254.593 305.186,255.047L305.186,303.929C305.186,304.384 304.819,304.75 304.367,304.75" style="fill:black;fill-rule:nonzero;"/>
        <path d="M314.593,255.011L364.192,255.011L364.192,264.049L329.175,264.049L329.175,274.526L361.314,274.526L361.314,282.877L329.175,282.877L329.175,294.859L364.935,294.859L364.935,303.896L314.593,303.896L314.593,255.011Z" style="fill:black;fill-rule:nonzero;"/>
        <path d="M315.412,303.075L364.115,303.075L364.115,295.678L329.175,295.678C328.722,295.678 328.356,295.31 328.356,294.858L328.356,282.877C328.356,282.424 328.722,282.056 329.175,282.056L360.493,282.056L360.493,275.344L329.175,275.344C328.722,275.344 328.356,274.975 328.356,274.525L328.356,264.049C328.356,263.595 328.722,263.229 329.175,263.229L363.372,263.229L363.372,255.83L315.412,255.83L315.412,303.075ZM364.935,304.714L314.593,304.714C314.141,304.714 313.772,304.347 313.772,303.895L313.772,255.011C313.772,254.559 314.141,254.191 314.593,254.191L364.192,254.191C364.646,254.191 365.011,254.559 365.011,255.011L365.011,264.049C365.011,264.501 364.646,264.867 364.192,264.867L329.995,264.867L329.995,273.704L361.314,273.704C361.766,273.704 362.133,274.07 362.133,274.525L362.133,282.877C362.133,283.33 361.766,283.696 361.314,283.696L329.995,283.696L329.995,294.038L364.935,294.038C365.388,294.038 365.755,294.404 365.755,294.858L365.755,303.895C365.755,304.347 365.388,304.714 364.935,304.714" style="fill:black;fill-rule:nonzero;"/>
        <path d="M583.058,257.132L583.058,279.049L583.423,279.049C587.007,279.048 590.597,279.071 594.185,279.033C595.255,279.022 596.343,278.933 597.392,278.723C600.999,278.005 603.429,275.926 604.439,272.332C605.185,269.662 605.189,266.957 604.578,264.266C604.062,261.991 602.915,260.099 600.913,258.804C599.146,257.66 597.163,257.182 595.099,257.15C591.193,257.088 587.281,257.12 583.374,257.114C583.279,257.114 583.187,257.124 583.058,257.132M615.302,304.531C614.138,304.531 613.046,304.544 611.954,304.514C611.81,304.512 611.619,304.309 611.537,304.153C609.886,301.008 608.273,297.846 606.609,294.707C605.308,292.255 604.019,289.787 602.591,287.405C601.906,286.264 600.988,285.228 600.038,284.282C598.63,282.877 596.792,282.267 594.861,282.06C593.249,281.888 591.621,281.874 589.997,281.853C587.699,281.819 585.402,281.842 583.038,281.842L583.038,304.502L579.693,304.502L579.693,254.341L580.203,254.341C584.515,254.341 588.826,254.333 593.136,254.344C595.822,254.35 598.468,254.615 600.995,255.606C604.8,257.096 607.087,259.906 608.005,263.836C608.769,267.11 608.828,270.401 607.896,273.663C606.861,277.297 604.562,279.711 600.921,280.813C600.771,280.858 600.624,280.919 600.412,280.995C600.804,281.2 601.16,281.362 601.49,281.561C602.947,282.445 604.132,283.634 605.001,285.082C606.3,287.26 607.558,289.469 608.738,291.716C610.878,295.797 612.953,299.918 615.054,304.022C615.124,304.163 615.193,304.307 615.302,304.531" style="fill:black;"/>
        <path d="M560.105,254.361L563.435,254.361C563.449,254.518 563.468,254.656 563.468,254.796C563.468,265.415 563.486,276.035 563.449,286.655C563.435,289.969 562.941,293.224 561.632,296.307C559.537,301.229 555.794,304.108 550.582,305.089C547.044,305.753 543.501,305.703 540.009,304.771C534.777,303.37 531.47,299.931 529.779,294.859C528.912,292.258 528.523,289.569 528.513,286.841C528.488,276.14 528.498,265.44 528.492,254.741C528.492,254.629 528.505,254.519 528.517,254.375L531.851,254.375L531.851,255.043C531.855,265.277 531.851,275.508 531.873,285.742C531.875,288.665 532.179,291.554 533.06,294.358C533.876,296.96 535.212,299.2 537.576,300.703C539.222,301.75 541.041,302.299 542.959,302.546C545.644,302.89 548.322,302.843 550.959,302.17C555.019,301.132 557.566,298.516 558.834,294.572C559.757,291.695 560.085,288.729 560.089,285.726C560.109,275.493 560.101,265.259 560.105,255.027L560.105,254.361Z" style="fill:black;"/>
        <path d="M630.802,301.82L656.3,301.82L656.3,304.498L627.384,304.498L627.384,254.375L655.679,254.375L655.679,257.109L630.806,257.109L630.806,276.396L654.652,276.396L654.652,279.103L630.802,279.103L630.802,301.82Z" style="fill:black;"/>
        <path d="M380.618,280.184C380.76,280.19 380.854,280.198 380.948,280.198C384.294,280.2 387.639,280.22 390.985,280.184C392.026,280.172 393.079,280.085 394.1,279.892C398.113,279.129 400.916,276.905 402.096,272.913C402.874,270.289 402.885,267.609 402.24,264.949C401.434,261.624 399.443,259.293 396.245,258.034C394.469,257.332 392.601,257.14 390.711,257.136C387.51,257.128 384.309,257.134 381.108,257.135C380.951,257.135 380.796,257.148 380.618,257.157L380.618,280.184ZM377.26,254.342L377.747,254.342C382.092,254.342 386.436,254.333 390.781,254.344C393.172,254.35 395.531,254.583 397.812,255.37C401.793,256.739 404.382,259.439 405.457,263.508C406.394,267.047 406.379,270.617 405.359,274.135C404.104,278.45 401.142,281.041 396.874,282.228C394.843,282.791 392.765,282.953 390.665,282.953C387.512,282.95 384.357,282.95 381.204,282.953L380.595,282.953L380.595,304.502L377.26,304.502L377.26,254.342Z" style="fill:black;"/>
        <path d="M698.944,260.016C698.641,259.876 698.413,259.769 698.18,259.663C695.555,258.451 692.893,257.291 690.048,256.712C686.694,256.029 683.311,255.936 679.948,256.743C678.257,257.15 676.696,257.859 675.309,258.914C673.895,259.988 673.055,261.451 672.59,263.135C672.069,265.032 671.901,266.968 672.196,268.917C672.524,271.093 673.71,272.733 675.516,273.957C677.649,275.403 680.038,276.234 682.493,276.916C685.122,277.648 687.768,278.322 690.366,279.155C693.2,280.062 695.772,281.468 697.811,283.709C699.717,285.803 700.649,288.254 700.592,291.096C700.544,293.546 700.237,295.936 699.176,298.176C698.37,299.874 697.174,301.224 695.587,302.243C691.674,304.751 687.424,305.824 682.78,305.443C680.223,305.233 677.698,304.898 675.26,304.084C673.018,303.334 670.989,302.16 669.003,300.902C668.891,300.835 668.788,300.653 668.786,300.523C668.768,299.545 668.776,298.566 668.776,297.499C668.983,297.613 669.132,297.692 669.278,297.772C670.878,298.663 672.45,299.613 674.085,300.432C676.86,301.825 679.796,302.693 682.923,302.734C686.364,302.778 689.663,302.192 692.704,300.446C694.858,299.206 696.153,297.365 696.749,294.995C697.217,293.137 697.337,291.245 697.065,289.348C696.745,287.168 695.526,285.556 693.803,284.248C691.223,282.295 688.282,281.211 685.169,280.484C682.307,279.817 679.432,279.184 676.731,277.975C675.157,277.27 673.639,276.471 672.299,275.364C670.079,273.527 668.799,271.195 668.667,268.296C668.536,265.457 668.938,262.709 670.292,260.168C671.977,257.009 674.676,255.16 678.077,254.24C681.046,253.437 684.075,253.386 687.124,253.5C691.165,253.651 694.801,255.235 698.499,256.621C698.862,256.757 698.965,256.971 698.954,257.348C698.924,258.21 698.944,259.075 698.944,260.016" style="fill:black;"/>
        <path d="M474.942,262.323C474.171,261.714 473.487,261.137 472.77,260.606C467.996,257.08 462.629,255.762 456.758,256.332C453.938,256.604 451.264,257.332 448.823,258.812C445.749,260.677 443.617,263.356 442.171,266.613C440.837,269.618 440.228,272.796 439.987,276.051C439.771,278.962 439.802,281.87 440.17,284.771C440.716,289.057 441.927,293.096 444.673,296.546C447.227,299.76 450.582,301.659 454.579,302.399C462.084,303.781 468.769,302.065 474.524,296.971C474.632,296.876 474.743,296.789 474.942,296.625L474.942,298.225C474.94,298.931 474.958,299.64 474.927,300.347C474.92,300.521 474.8,300.749 474.663,300.843C470.943,303.316 466.865,304.817 462.42,305.309C458.871,305.699 455.353,305.56 451.9,304.578C446.353,302.998 442.329,299.531 439.613,294.503C437.868,291.276 436.975,287.79 436.585,284.162C436.115,279.798 436.24,275.456 437.181,271.16C438.203,266.503 440.238,262.378 443.713,259.035C446.492,256.364 449.798,254.667 453.567,253.977C461.126,252.593 468.177,253.843 474.576,258.249C474.844,258.434 474.953,258.624 474.949,258.952C474.927,260.053 474.942,261.155 474.942,262.323" style="fill:black;"/>
        <path d="M519.206,254.372L519.206,257.089L501.425,257.089L501.425,304.499L498.02,304.499L498.02,257.123L480.251,257.123L480.251,254.372L519.206,254.372Z" style="fill:black;"/>
        <rect x="418.699" y="254.368" width="3.43" height="50.146" style="fill:black;"/>
        <path d="M836.244,261.236L836.244,304.255L832.881,304.255L832.881,254.244C833.877,254.244 834.877,254.215 835.871,254.272C836.043,254.282 836.242,254.638 836.351,254.87C838.738,259.98 841.111,265.094 843.49,270.208C847.199,278.184 850.914,286.158 854.601,294.146C855.191,295.416 855.64,296.753 856.148,298.059C856.232,298.266 856.32,298.468 856.449,298.79C856.564,298.574 856.633,298.488 856.664,298.388C858.211,293.504 860.603,288.984 862.719,284.348C867.209,274.516 871.765,264.713 876.271,254.888C876.508,254.382 876.762,254.187 877.316,254.227C878.06,254.279 878.808,254.24 879.615,254.24L879.615,304.252L876.254,304.252C876.474,289.999 875.967,275.759 876.51,261.392C876.486,261.482 876.474,261.578 876.439,261.659C873.578,267.99 870.738,274.33 867.844,280.644C864.324,288.326 860.758,295.982 857.223,303.653C857.033,304.063 856.871,304.328 856.324,304.326C855.779,304.326 855.664,304.011 855.496,303.653C849.723,291.267 843.935,278.892 838.193,266.493C837.488,264.971 837.012,263.344 836.43,261.766C836.379,261.622 836.33,261.477 836.244,261.236" style="fill:white;"/>
        <path d="M819.211,279.01C818.977,276.871 818.844,274.715 818.481,272.6C817.75,268.375 816.043,264.584 812.91,261.566C808.223,257.041 802.465,255.89 796.26,256.734C789.125,257.704 784.215,261.872 781.428,268.341C778.4,275.349 778.494,282.593 781.047,289.73C782.77,294.554 785.998,298.191 790.746,300.31C794.166,301.835 797.783,302.146 801.479,301.774C808.473,301.063 813.584,297.599 816.656,291.253C818.52,287.402 819.033,283.256 819.211,279.01M822.582,279.019C822.527,283.593 821.877,288.402 819.627,292.846C815.898,300.206 809.875,304.245 801.664,305.012C797.768,305.376 793.93,305.072 790.25,303.684C784.033,301.341 779.99,296.812 777.613,290.723C775.967,286.504 775.578,282.088 775.816,277.605C776.033,273.497 776.822,269.518 778.707,265.827C782.301,258.783 788.022,254.699 795.879,253.664C800.117,253.108 804.315,253.281 808.336,254.849C814.856,257.398 818.943,262.253 821.154,268.782C822.234,271.984 822.584,275.308 822.582,279.019" style="fill:white;"/>
        <path d="M768.818,261.71C767.07,260.554 765.466,259.254 763.664,258.349C757.033,255.013 750.234,254.715 743.506,257.969C739.199,260.052 736.711,263.806 735.248,268.266C733.839,272.557 733.572,276.986 733.787,281.46C733.957,284.967 734.513,288.405 735.902,291.654C738.672,298.149 743.642,301.627 750.615,302.32C757.347,302.991 763.252,301.097 768.33,296.621C768.445,296.522 768.582,296.444 768.814,296.281C768.814,297.603 768.836,298.815 768.793,300.022C768.787,300.213 768.527,300.439 768.33,300.57C764.871,302.844 761.084,304.273 756.982,304.827C753.088,305.351 749.214,305.233 745.429,304.073C739.129,302.144 734.951,297.898 732.461,291.913C730.418,287.009 730,281.846 730.267,276.6C730.474,272.516 731.23,268.546 733.07,264.859C736.463,258.058 741.906,254.092 749.506,253.229C756.246,252.461 762.496,253.814 768.17,257.628C768.654,257.955 768.865,258.299 768.832,258.887C768.783,259.837 768.818,260.794 768.818,261.71" style="fill:white;"/>
        <path d="M719.299,305.702C717.961,305.702 716.86,304.678 716.84,303.415C716.824,302.123 717.938,301.062 719.309,301.064C720.674,301.066 721.783,302.128 721.76,303.422C721.74,304.684 720.639,305.705 719.299,305.702" style="fill:white;"/>
    </g>
</svg>
