<svg xmlns="http://www.w3.org/2000/svg" width="431" height="69" viewBox="0 0 431 69">
  <metadata><?xpacket begin="﻿" id="W5M0MpCehiHzreSzNTczkc9d"?>
<x:xmpmeta xmlns:x="adobe:ns:meta/" x:xmptk="Adobe XMP Core 5.6-c138 79.159824, 2016/09/14-01:09:01        ">
   <rdf:RDF xmlns:rdf="http://www.w3.org/1999/02/22-rdf-syntax-ns#">
      <rdf:Description rdf:about=""/>
   </rdf:RDF>
</x:xmpmeta>
                                                                                                    
                                                                                                    
                                                                                                    
                                                                                                    
                                                                                                    
                                                                                                    
                                                                                                    
                                                                                                    
                                                                                                    
                                                                                                    
                                                                                                    
                                                                                                    
                                                                                                    
                                                                                                    
                                                                                                    
                                                                                                    
                                                                                                    
                                                                                                    
                                                                                                    
                                                                                                    
                           
<?xpacket end="w"?></metadata>
<defs>
    <style>
      .cls-1 {
        fill: #fff;
        fill-rule: evenodd;
      }
    </style>
  </defs>
  <path id="logo" class="cls-1" d="M1821.47,494.37l0.39,39.171h-24.5l-1.7-5.257,0.24-62.13h23.25l36.07,41.43L1855.31,466l24,0.1,1.69,4.893-0.65,62.743h-24.83Zm-282.84,40.147-1.64-4.947,0.58-62.59c14,0,27.6-.1,41.61,0,22.62,0,34.41,12.638,34.21,25.377,0.21,12.35-1.46,24.7-33.39,24.7h-16.97l0.29,17.46h-24.69Zm39.72-32.8c11.72,0,11.55-4.918,11.47-9.84-0.08-4.824-3.65-9.553-10.39-9.553h-17.37l0.32,19.393h15.97Zm79.25,24.906,0.16,8.393h-25.5l-1.83-5.276L1630.2,466.8h15.86l83.55,63.245,1.58,4.97h-27.24l-11.07-8.393H1657.6Zm-1.81-14.763h19.53l-20.6-16.305Zm86.56-23.2,3.16-22.386h24.22l1.6,5.018-5.1,35.795,17.66,26.727h-26.31l-19.05-26.727-54.2-36.743-1.37-4.07h26.42l31.89,22.386h1.08Zm223.41-7.212h-38.89l0.16,9.648h35.83l0.25,15.437h-35.83l0.18,11h40.27l0.26,16.113h-68.42l-1.82-5.594,0.85-61.947h65.28l1.71,4.772Z" transform="translate(-1537 -466)"/>
</svg>
