<svg xmlns="http://www.w3.org/2000/svg" viewBox="0 0 1820.9 723.65"><defs><style>.cls-1{fill:#d50000;}</style></defs><title>signature</title><g id="Ebene_2" data-name="Ebene 2"><g id="payne_kopieren_Bild" data-name="payne kopieren Bild"><path class="cls-1" d="M443.41,266.6c.12-4,2.51-5.27,6-7.15,7.22-3.92,16.4-5,20.89-13.55,1.9-3.62,5.35-6.41,8-9.65.41-.5.15-1.48.45-2.12,2-4.12,3.93-8.25,6.06-12.29,3.57-6.77,7.27-13.48,10.89-20.23.22-.41.06-1,.3-1.43,5.36-8.61,10.91-17.12,16.08-25.85,2-3.3,2.94-7.16,4.58-10.67,2.9-6.19,6-12.3,8.94-18.47,1.12-2.34,2-4.82,3.18-7.13,3.25-6.3,6.31-12.74,10-18.76a95.74,95.74,0,0,1,10.16-13.24c4.21-4.71,8.9-9,13.38-13.46l1.37.83c-.1,1.35.21,2.92-.37,4-2.79,5.34-5.76,10.6-8.78,15.82-4.75,8.19-9.69,16.27-14.39,24.48-3.53,6.16-7.61,12.17-10,18.78-2.84,7.85-5.3,15.59-12.12,21a2.78,2.78,0,0,0-.65,1.33,87.66,87.66,0,0,1-17,31.09c-3.7,4.3-3.72,9.61-7.58,13.75s-5.11,11.11-7,17.87c4.22-2.94,8.2-6.33,12.7-8.73,10-5.34,20.3-10.22,30.52-15.19a11.16,11.16,0,0,1,4.72-1.22c3.23,0,5.08-.53,7-4,1.57-2.83,6.31-4.91,9.85-5.26a11.9,11.9,0,0,0,5.19-1.92c3.74-2.06,7.83-3.46,11.64-5.41s7.23-4.48,11.07-6.24c6.43-2.94,13-5.47,19.59-8.16.72-.29,1.63-.32,2.17-.78,6.61-5.66,15.09-6.94,22.85-9.93,2.52-1,4.76-2.67,7.25-3.73,9.1-3.85,18.29-7.5,27.39-11.37,7.38-3.14,14.67-6.47,22-9.72,5.56-2.47,10.92-6.3,16.72-7.12,10.58-1.51,18.92-8.68,29.43-10.09,3.28-.44,6.22-3,9.45-4.24,11.41-4.32,23.06-8,34.26-12.84,7.39-3.16,15.3-4.29,22.77-7.44,8-3.38,16.25-8.46,26.2-6,2.4.6,5.65-3.31,8.77-4.29,5.71-1.79,11.62-2.95,17.46-4.33a22.47,22.47,0,0,1,2.89-.34c8.65-.88,17.28-2,25.95-2.55a74.12,74.12,0,0,1,15.75.33c9.3,1.39,18.29,4.79,23.38,12.93,2.36,3.77,3,10.6,1.21,14.61a78.69,78.69,0,0,1-18.49,25.67c-5.81,5.39-11.05,11.39-16.65,17-.82.82-2.22,1.07-3.86,1.82-.18,3.36-2.32,5.95-6.47,7.69-3.11,1.3-5.51,4.19-8.42,6.08-6.18,4-12.48,7.85-18.73,11.77-4.24,2.66-8.38,5.48-12.72,8-6.38,3.66-13.85,6.07-19.05,10.94-4.08,3.82-9.34,4.15-13.08,7.37-7.84,6.75-17.41,9.91-26.57,14-4.83,2.17-9.24,5.31-14.13,7.27-6.11,2.45-12.53,4.13-18.81,6.19a6.33,6.33,0,0,0-2.45,1.29c-4.47,4.4-10.05,6-16,7.4-3.11.71-5.7,3.45-8.71,4.88-6.64,3.17-13.23,6.58-20.16,9-9.78,3.39-19.89,5.81-29.75,9-3.36,1.07-6.33,3.28-9.6,4.69-3.59,1.54-7.34,2.7-11,4.11-1.51.58-2.88,1.55-4.42,2-1.19.32-2.55.06-4.79.06-4.36,4.19-11.33,5.19-18.11,6.69-5.71,1.26-10.82,5.1-17.08,3.94-1.31,3.52-4.83,3.54-7.58,4.77a60.19,60.19,0,0,1-6.4,2.78,95.65,95.65,0,0,1-11.39,3c-1.53.28-3-.63-3.73,1.8-.27.87-2.78,1.05-4.4,1.34-4.21,1.31-8.47,2.49-12.61,4s-8.22,3.42-12.39,5c-5.61,2.1-11.23,4.23-17,6-4.47,1.35-9.27,1.67-13.65,3.24-3.4,1.21-6.27,3.85-9.57,5.42-1.72.82-4.32,3.33-5.36-1-2.88,2.44-5.46,5.31-8.73,3.55-3.37,1.59-6.35,3.38-9.58,4.45-8.81,2.9-17.74,5.45-26.58,8.27-1.31.42-2.39,1.54-3.76,2.46l-3.59-1.72c-.82,1.12-1.45,2.89-2.3,3-7.42,1-12.39,10-20.56,7.41-2.06,1.31-4.13,2.62-6.18,4a13.52,13.52,0,0,0-2.73,2c-3.63,4-7.19,8.09-10.74,12.17a13.28,13.28,0,0,0-1.35,2.05c-2.94,5-6.21,9.89-8.7,15.13-2.3,4.86-6.2,6.77-11,7.69,1.7,4.13,1.68,4.09-1.94,6a3.28,3.28,0,0,0-1.09,1.63c-3.76,8.94-9.94,16.35-15.46,24.17-.53.75-2.12.74-3.53,1.18,3.31,5.91-4.37,6.73-6,10.81-1.09,2.81-3.6,5.08-5.49,7.57-.3.4-.7,1.08-1,1.06-5.7-.48-5.38,4.82-7.64,7.71-3,3.78-6.36,7.22-9.45,10.92-1.22,1.46-2,3.32-3.16,4.8-2.28,2.81-4.75,5.47-7.12,8.21-2.12,2.44-4.13,5-6.34,7.32-1.58,1.68-3.41,3.11-4.61,4.9-2.61,3.82-4.63,8.3-8,11.29-4.84,4.31-8.49,9.57-13,14.13-3.13,3.19-6.3,6.33-9.41,9.44l2.21.52c-5.88,5.58-12.49,10.07-16.64,16.24a116.17,116.17,0,0,1-18.22,21.51c-6.09,5.51-9.57,14.08-18.46,16.4-.76,5-6.19,5.58-8.66,9.1a64.07,64.07,0,0,1-8.79,9.89c-8.74,8.16-17.67,16.1-26.55,24.1-4.1,3.69-8.28,7.3-12.4,11s-8,7.26-12.08,10.83c-4.61,4.06-9.18,8.17-14,12-4.43,3.57-9.15,6.76-13.66,10.23s-8.66,7-13.12,10.39c-2.08,1.56-4.54,2.6-6.72,4-7,4.59-13.54,9.89-20.88,13.75-12.47,6.56-25,13.26-38.28,17.88-8.24,2.88-17.79,2.72-26.73,2.55-3.71-.07-8.17-3-10.81-5.93s-3.22-7.36-4.59-11.19c-1.08-3-2.46-6.06-2.82-9.2C.19,692.87-.58,688,.71,684c2.18-6.78,5.77-13.14,9-19.53.91-1.79,2.76-3.12,4.21-4.62.65-.67,1.66-1.13,2-1.91,4-8.07,7.72-16.27,11.91-24.24a55.79,55.79,0,0,1,7.41-10.61c.76-.87,4-.8,5,.08,1.33,1.2,4.11,3.2,1,5.68-3.39,2.73-6.75,5.5-10.4,8.48l3.87-.42c-2.4,6.67-4.56,13.12-7.09,19.41-.79,2-3.29,3.34-3.83,5.31-1.69,6.12-2.72,12.41-4.17,18.6-1.83,7.76-2.07,16-7.38,22.75-1.29,1.64-.76,4.71-1.08,7.31,10.91,7.61,22.37,4.79,33.45,1.23a145.1,145.1,0,0,0,40.63-20.88c8.61-6.21,17-12.86,26.24-18,11.78-6.6,20.09-17.06,30.48-25.15,7.88-6.13,15.82-12.22,23.4-18.72,7-6,13.63-12.59,20.46-18.88,8-7.36,16.07-14.63,24-22.06,2.11-2,3.61-4.6,5.69-6.63,2.35-2.3,5.29-4,7.5-6.43,3.64-4,6.84-8.3,10.36-12.36.77-.88,2.38-1,3.21-1.86,4.41-4.59,8.71-9.29,13-14,4.46-4.83,8.6-10,13.44-14.43a91.93,91.93,0,0,0,12.35-14c.57-.78,1-1.91,1.82-2.22,5.66-2.24,7.14-7.93,10.44-12.13,3.8-4.83,8.18-9.2,12.08-14,3.75-4.56,7.07-9.48,10.84-14,3.5-4.22,7.5-8,11-12.26,2.75-3.31,5.1-7,8.49-11.67l.87,8.42h.6c.34-3.4,0-7.05,1.22-10.13,1-2.6,3.75-4.52,5.7-6.77s4-4.33,5.67-6.7c6.49-9,12.94-18,19.23-27.13,3-4.3,5.23-9.1,8.35-13.28,4.77-6.38,10-12.39,15-18.62a24.68,24.68,0,0,0,2.08-4.14L391.8,377c.32-.82.7-1.3.6-1.61-1.58-4.67-3.54-5-7.75-3-9.47,4.5-19.24,8.34-28.8,12.66-5,2.24-9.76,4.81-14.55,7.4-6.74,3.64-13.39,7.43-20.57,11.43l2.74,4c-2.72,2.77-8.48,3.12-11,.4-3.31-3.54-.67-6,2-8.07,3.91-3,7.8-6.15,12.13-8.4,7.68-4,15.69-7.34,23.82-11.08l.83,2.49c.39-.3,1-.54,1.09-.89.87-4.36,3.63-6.36,7.79-7.78,8-2.73,15.61-6.81,23.71-9.19,14.79-4.34,21.83-16.34,29.48-27.93,3.45-5.22,6.76-10.54,10.46-15.58,1.17-1.6,3.4-2.42,4.27-3,2.75-5.56,5.17-10.77,7.88-15.82s5.82-10.16,8.75-15.23c.08-.14.06-.42.15-.45,8.29-3.08,4.85-13.54,11.31-18,1.63-1.13,1.83-4.33,2.68-6.59l2.54,2.4c-.78-3.38-3.53-4.38-5.3-1.93-3.16,4.37-6.83,4.48-11.24,3.39-.21-.05-.53.35-.8.54Zm390.66-82.21c1.67-1.89,2.84-3.74,4.48-5,6.41-4.89,12.69-10.06,19.56-14.23a33.05,33.05,0,0,0,14.18-16.92c.48-1.24,1.71-2.94,2.76-3.07,4.58-.56,7.58-3.1,10.51-6.4,4.54-5.12,9.69-9.68,14.2-14.82,3.76-4.28,5-12.38,1.69-15.65a26.34,26.34,0,0,0-11.26-6.2c-9.32-2.59-18.87-1.26-28.34-.2-5.68.64-11.51.46-17,1.66-9.57,2.08-19,4.79-28.43,7.53-6.38,1.86-12.58,4.35-18.94,6.29-5.62,1.71-11.37,3-17,4.58-5.32,1.49-10.71,2.85-15.88,4.77-10.42,3.89-20.68,8.22-31.07,12.18-6.11,2.33-12.42,4.16-18.53,6.49-5.32,2-10.47,4.48-15.74,6.62-1.36.55-3.08.34-4.34,1-2.37,1.31-4.33,3.57-6.8,4.44-7.8,2.75-15.8,4.91-23.62,7.58-2.39.82-4.36,2.83-6.72,3.78-3.14,1.25-6.59,1.7-9.7,3s-5.85,3.46-8.95,4.81c-4.89,2.13-9.91,4-14.95,5.77-2.91,1-6,1.58-10.3,2.67-2.26,3.65-4,4.33-7.54,2.68-1.64,1.35-2.55,2.21-3.56,2.91a33.48,33.48,0,0,1-3,1.67c-4,2.16-7.85,4.49-11.94,6.39-1.37.64-4-.49-4.75.35-5.14,5.89-12.24,7.59-19.17,9.82-1.27.41-2.21,1.78-3.46,2.36-2.34,1.07-4.81,1.86-7.22,2.8-.56.22-1.05.6-1.61.83-3.34,1.33-6.37,5.07-9.62,1.6-1.11,2.16-1.63,5.21-3.24,6-6.72,3.22-13.75,5.8-20.7,8.53-3,1.17-7.79,1.35-8.73,3.38-3.07,6.65-5,2.23-7.41-.27-1.25,7.13-2.71,8.43-8.9,8.75-.91,0-1.82,1.09-2.62,1.8-1.08,1-1.89,2.73-3.08,3-10.79,2.58-14.47,12-19.8,19.94-2.37,3.52-2.83,8.41-7.34,10.48a3.58,3.58,0,0,0-1.62,1.84c-1.71,4.44-3.31,8.93-5.08,13.78l-1.62-3.92c-1.12,3.35-1.7,6.78-3.35,9.59-2,3.35-5,6.07-7.32,9.23a72.14,72.14,0,0,0-3.95,6.67l.23.22L427.1,333.13l-1.09-.37-.71-4.36c1.19,8.19-3.37,13.88-8.06,19.6-.92,1.12-1.09,2.84-2,5.49,4.88-2.32,8.23-4.15,11.74-5.51,3.34-1.3,6.9-2,10.29-3.18,4.19-1.47,8.3-3.18,12.44-4.79,12.86-5,25.71-10,38.6-15,3.48-1.33,7.1-2.29,10.69-3.32,5.8-1.68,11.71-3,17.42-5,6.88-2.33,13.61-5.1,20.38-7.72,2.43-.94,5.14-3.33,7.15-2.82,6.62,1.68,10.56-7.33,17.29-3.82.08,0,.39-.53.67-.68a50,50,0,0,1,5.91-2.92c3-1.07,6.36-1.27,9-2.79,7.84-4.47,16.07-7.26,25.13-7.51a5.28,5.28,0,0,0,2.23-.71c3.61-1.94,7.34-5.82,10.73-5.53,6.59.56,10.29-4.58,15.95-5.79,8-1.7,15.39-5.83,23.16-8.6,8-2.87,16.59-4,24.4-8,9.66-4.94,19.88-8.8,29.91-13,8.3-3.48,16.8-6.5,25-10.22,7.37-3.35,14.45-7.35,21.65-11.09,8.12-4.22,16.14-8.62,24.37-12.61,3.5-1.7,7.41-2.54,12.36-4.18,1.46-3.21,13.13-8.52,16.19-5.94.58-1.49.71-3.63,1.79-4.34,5.67-3.71,11.6-7,17.37-10.58a7,7,0,0,0,2.55-2.84C830.94,182.15,832.35,181.86,834.06,184.39Z"/><path class="cls-1" d="M1158.28,304.47c1.75-2.89,3-5.49,4.76-7.77s3.71-4,5.56-6c3.4-3.68,6.76-7.41,10.16-11.09,2.54-2.75,5-5.64,7.73-8.16s5.83-4.62,8.79-6.89c.37-.29,1.13-.36,1.23-.68,2-6.82,8.14-10.4,12.33-15.49,1.74-2.12,4.42-3.46,6.82-4.83,2.67-2.79,5.45-5.48,8-8.38,5.38-6.14,10.49-12.52,16-18.53,4-4.34,10-10.34,14.17-10.2,1.9-3.5,2.93-6.84,5.1-9.09,4.13-4.29,9.05-7.8,13.39-11.9,5.37-5.07,10.35-10.55,15.74-15.6,9.28-8.68,18.9-17,28.07-25.79,4.39-4.2,8-9.18,12.12-13.71,1.93-2.14,4.13-4,6.19-6.05,2.58-2.53,5.08-5.13,7.72-7.59,3.32-3.1,6.74-6.09,10.21-9.21-1.27-1-1.62-1.45-1.72-1.4q-7.77,4.4-15.5,8.88c-4.35,2.52-8.63,5.19-13,7.6-6.29,3.44-12.66,6.74-19,10-5.87,3-11.87,5.84-17.65,9-8.88,4.9-17.62,10.05-26.42,15.08a24.47,24.47,0,0,1-4.35,2.23c-9.93,3.25-19,8.05-27.84,13.66-6.14,3.89-13.68,5.5-20.48,8.41-4.21,1.8-8.14,4.24-12.31,6.16-8.39,3.86-16.72,7.9-25.32,11.24s-17.37,5.78-26,8.75c-3.18,1.09-6.17,2.72-9.34,3.83-5.56,1.95-10.76,4.82-16.07,7-6.22,2.59-13.81,2-20.83,2.55-3.94.32-7.91.28-11.87.3-7.14,0-13.88-7.79-12.92-14.75a39.4,39.4,0,0,1,8.83-19.72,4,4,0,0,0,1.13-2.55c-4.63,2.61-9.23,5.3-13.92,7.81-2.94,1.58-6.07,2.78-9,4.35-11.14,6-22.09,12.31-33.39,17.95-7.62,3.8-15.72,6.63-23.59,9.94-8.82,3.71-17.38,8.24-26.48,11-12.82,3.92-25.89,7.65-39.13,9.4-9.62,1.28-19.82,1.72-29.54-1.44-11.13-3.62-14.93-13.63-9.06-24,2.4-4.22,4.18-8.92,7.17-12.66,4.58-5.72,10-10.8,15-16.15.9-1,1.82-1.9,2.72-2.87,3.71-4,7.27-8.15,11.16-12,6.93-6.79,13.94-13.49,21.15-20,3.29-3,7.27-5.16,10.67-8,5.22-4.41,9.61-10.15,15.43-13.39,7.4-4.12,11.6-13,21.12-13.81.92-.08,1.56-2,2.6-2.58a17.31,17.31,0,0,1,4.23-1.3c.88-.22,2.12,0,2.64-.51,4.63-4.66,9.25-9,16.26-10.13,2.77-.46,5.18-3.09,8.07-4.93l1,2.25,23.5-7.51c1.1,7.52-1.87,11.25-8.41,11.47-2.86.1-4.59,1.09-6.68,3.64-2.74,3.35-7.25,5.72-11.45,7.27-4.58,1.7-9.8,1.62-14.53,3-3.74,1.11-7.14,3.35-10.75,4.93a9.05,9.05,0,0,1-2.84.44c-3.33,2.8-6.42,5.44-9.54,8-3.83,3.17-7.65,6.35-11.58,9.4-.84.65-2.24.55-3.15,1.15-1.25.82-3.23,2-3.22,3,0,3.93-2.69,5.6-5.09,7.78a34.66,34.66,0,0,0-4.31,5.29c-1.29,1.76-2.13,4-4.8,1.21-.52-.54-3.52.42-4.56,1.48-2.22,2.26-4.65,4.19-5.66,7.8S949.45,178,947,181.59l-3-3.24c-1.57,1.68-3,3.18-4.44,4.74-4.73,5.24-9.53,10.41-14.06,15.81-.78.93-.27,2.86-.64,4.25a40.83,40.83,0,0,1-1.69,4.45l-4.35-2.05c-1.33,2.65-6,4-4.26,8.91.22.62-1,1.81-1.67,2.67-2.2,3-4.64,5.75-6.59,8.86-1.72,2.74.63,6.41,3.9,6.51,1.88.06,4.15.73,5.56-.08,4.4-2.49,7.48,0,11.27,1.54,3,1.21,6.91,1,10.28.45,7.92-1.18,15.78-2.56,23.26-6,6.38-2.89,13.37-4.39,19.92-6.95,14.4-5.62,29.39-9.66,42.93-17.58,9.82-5.75,20.63-9.81,30.5-15.49,12.39-7.13,24.13-15.39,36.43-22.7,8.06-4.79,16.83-8.39,24.87-13.23,5.26-3.17,9.86-7.48,14.59-11.49,4.13-3.5,7.85-7.5,12.05-10.9,5.77-4.66,11.83-9,17.77-13.43,3.6-2.71,7.06-5.63,10.81-8.11,8-5.29,16.07-10.51,24.32-15.41,2.41-1.43,5.53-1.7,8.35-2.42,2.45-.62,4.57.31,4.79,2.74.18,2-.33,4.67-1.61,6-4.39,4.71-8.9,9.47-14.06,13.25-3.32,2.43-4.78,8.15-10.64,6.8-.73-.17-1.79.68-2.57,1.23-6.8,4.78-13.56,9.61-20.35,14.41-7.8,5.52-15.67,11-23.41,16.55-5.09,3.68-10.2,7.36-15,11.42-8.53,7.24-17,14.58-25.13,22.25A85.75,85.75,0,0,0,1083.57,199c-1.12,1.61-.9,5.47.33,7s4.44,1.2,6.81,1.6c.53.09,1.13-.35,1.69-.34,7.72,0,15.62,1.16,23.1-.13,7.2-1.24,13.94-5.06,21-7.57s13.94-4.69,20.9-7.06c2.44-.83,4.87-1.68,7.24-2.7,13.28-5.71,26.69-11.16,39.77-17.3,11.3-5.3,22.14-11.56,33.34-17.08,6.55-3.23,13.54-5.54,20.06-8.82,6.18-3.11,11.92-7.1,18-10.4,3.38-1.84,6.8-4.88,9.79-2.41,3.72-2.94,6.63-5.82,10.05-7.83,7.15-4.21,14.55-8,21.89-11.9,9.78-5.18,19.66-10.18,29.38-15.48,5.88-3.2,11.51-6.86,17.28-10.25,5.57-3.27,11.33-6.25,16.76-9.74,8.26-5.31,16-11.46,24.54-16.29s14.64-13.44,24.44-16.4c2.48-.75,5-1.77,7.52-2,3.41-.25,6.87,1.27,6.77,4.92-.07,2.64-1.83,6.22-4,7.65-8.81,5.86-18,11.23-27.19,16.42-6,3.4-12.46,6.11-18.6,9.34-1.53.8-2.52,2.57-3.95,3.63-8.49,6.32-17.05,12.4-24.18,20.49-6,6.86-13.39,12.57-20.17,18.77-7.62,7-15.38,13.78-22.85,20.9-3.56,3.39-6.47,7.44-9.91,11-1.48,1.52-3.56,2.46-4.82,3.85-3.71,4.59-7.31,9.28-11.23,13.69-.61.69-2.65.1-3.69.1-1.79,2.67-3.44,5.76-5.68,8.34-4.72,5.45-9.56,10.82-14.75,15.81-1.88,1.81-4.9,2.43-8.17,3.94,2,5.35-4.7,6.9-7.9,10.36a276.07,276.07,0,0,1-23.71,23.21c-3.12,2.64-6.1,4.58-6.9,8.8-.14.73-1.43,1.19-2.08,1.87-2.46,2.56-6.6,3.06-7.54,7.76-.46,2.28-4.08,4.11-6.51,5.78-7.17,4.93-11.73,12.31-17.74,18.33-6.75,6.76-12.68,15-20.7,19.58-5.57,3.18-5.14,10.38-11.32,11.88-4.63,1.12-4.83,5.82-6.89,9a4.85,4.85,0,0,1-1.49,1.63,26.31,26.31,0,0,0-8.95,8.33c-1,1.49-4.88,2.07-4.88,3,0,6.36-6.1,7.84-9,11.73-5.12,6.89-11.89,12.52-17.73,18.9-8,8.78-15.87,17.76-23.78,26.66-.22.25-.32.7-.58.8-5.78,2.24-7.92,8-11.69,12.14-4,4.37-8,8.66-11.82,13.14-2.77,3.24-5.06,6.9-7.92,10.06-3.57,3.94-7.76,7.33-11.2,11.36-2.69,3.16-4.68,6.93-6.93,10.46-.58.91-.7,2.41-1.48,2.85-8.42,4.71-12.08,13.78-18.7,20.09-3.43,3.27-4.19,8.51-9.24,10.76-2.4,1.07-3.4,5-5.41,7.3-4.68,5.39-9.92,10.34-14.33,15.94-5.42,6.89-10.22,14.26-15.39,21.56l-3.68-1.3c-.25.71-.43,1.14-.55,1.59-.54,2.08-.47,4.63-1.68,6.18-7.7,9.86-15.74,19.44-23.55,29.22-5.12,6.41-9.4,13.62-15.19,19.33-8.56,8.43-13.42,19.42-21.21,28.36-4.08,4.68-6.5,10.82-9.67,16.29l.58,1.42,10.31-3.07c.47,3.77,0,6.29-4.57,7.11-3.41.62-6.49,3-9.89,3.66-3.72.68-5.18-1.09-5.27-5.52-.12-5.77,2.44-9.47,5.89-13.34,1.55-1.74,2.06-4.34,3.39-6.32,6.9-10.3,13.83-20.58,20.92-30.75,5.43-7.79,11-15.53,16.77-23,2-2.53,5.28-4,7.35-6.47,3.33-4,6-8.52,9.21-12.62,6.71-8.61,12.72-18,20.67-25.31,5.6-5.12,8.59-11.81,13.66-16.8,6.62-6.53,11.3-14.49,17.77-21.12s11.24-14.36,16.94-21.49c3.37-4.22,7.15-8.12,10.61-12.28,3.77-4.53,7.14-9.41,11.11-13.75,5-5.48,10.52-10.51,15.67-15.88,1.39-1.45,2.06-3.57,3.36-5.14q11.43-13.73,23-27.31c1.47-1.71,3.65-2.8,5.26-4.42,3.74-3.75,7.35-7.63,11-11.5q9-9.64,17.93-19.34c2.74-3,5.18-6.26,8-9.15,4.35-4.44,9.85-8.07,13.12-13.17,3-4.71,9-5.84,11.16-11.42C1152.5,306.55,1156.4,305.6,1158.28,304.47Z"/><path class="cls-1" d="M1474.47,74.25c-7.41-6,4-7.5,2.28-12.14a29.53,29.53,0,0,0-2.43,1.82q-29.66,27.1-59.21,54.32c-.72.66-.09,2.78-.09,4.91,6.37-3.58,12.53-6.8,18.43-10.43,4.75-2.93,9.15-6.44,13.81-9.52.86-.57,2.5,0,3.34-.53,1.43-1,3.79-2.95,3.53-3.62-1.88-4.75,1.5-5.68,4.5-7.38l3.29,5.25c.46-3.54.73-5.65,1-7.76a12,12,0,0,1,.39-2.35c1.06-3,2.39-6.58,6.21-5.48,1.4.4,1.81,4.24,3,7.5,1.23-.33,3.89-.54,6-1.7q12-6.4,23.63-13.36c3.29-2,6.11-4.69,9.38-6.7,4.71-2.89,9.54-5.59,14.47-8.09,10.21-5.18,20.26-10.82,30.86-15.06,11.7-4.68,23.71-9.09,36.49-9.85,3.55-.21,7.66.42,9,5.27,1.23,4.5-.95,7-4.22,9.51a75.61,75.61,0,0,0-9.07,8.3c-6.62,7-15.77,10-23.55,15.15a31.86,31.86,0,0,0-4.82,4.66c-1.71,1.76-3.08,4-5.08,5.29-7.63,5-15.47,9.61-23.2,14.44-8.64,5.39-17.41,10.58-25.77,16.37-3.39,2.35-6,5.9-8.54,9.27-.46.62,1.18,4.11,2.19,4.29a42.84,42.84,0,0,0,12,.63c9.46-1.06,18.89-2.5,28.28-4.1,2.86-.49,5.49-2.42,8.35-2.89,3.6-.59,7.33-.34,11-.52,1,0,1.92-.56,2.88-.56,7.33,0,11.38-5.63,16.43-9.55,8.31-6.46,17.53-12.05,24.69-19.6s16.75-11.57,24.82-17.73c1-.76,2.68-.6,3.32-1.32,4.93-3.63,9.76-7.41,14.83-10.84,4.66-3.15,9.31-6.55,14.44-8.7,9-3.79,15.74-11.26,25.51-14.19s18.69-8.62,28.15-12.72c9.72-4.21,19.62-8,29.48-11.89,3.06-1.21,6.22-2.15,9.48-3.26,1.21,6.92-3.54,12.51-9.27,12.13-.6,0-1.33-.26-1.8,0-4.16,2.13-8.2,4.49-12.41,6.51-5.17,2.47-10.48,4.64-15.71,7-1.73.78-3.34,1.81-5.07,2.59-10.1,4.57-20.4,8.75-30.28,13.75-6.32,3.19-12,7.62-18,11.36-3.73,2.3-7.77,4.12-11.41,6.56-5.83,3.9-11,9.14-17.24,12-9.92,4.54-16.7,13.39-26.56,17.84-1.73.78-2.69,3.1-4.28,4.36-3.27,2.6-6.74,4.95-10.07,7.47-.54.41-.8,1.2-.65,2.91,4.37-1.45,8.67-3.17,13.12-4.28,6-1.5,12.21-2.28,18.21-3.83,8-2.08,16-4.43,23.94-7,12.14-3.88,24.26-7.81,36.26-12.1,6.37-2.28,12.45-5.38,18.66-8.09,8.55-3.74,17.16-7.37,25.66-11.22,4.33-2,8.51-4.29,12.71-6.53,12.58-6.7,25.23-13.28,37.67-20.22a191,191,0,0,0,16.41-10.68,35.63,35.63,0,0,0,7.36-6.61c1.27-1.58,2.55-5.06,1.79-6-1.85-2.2-4.88-4.71-7.46-4.74-8.08-.1-16.16,1-24.26,1.43-4,.22-7.95,0-12,0-.91-4.2-1.1-6.44,3.53-6.61,2.57-.09,5.07-1.86,7.61-2.86a18.87,18.87,0,0,1,2.75-1C1779,2.29,1784.8.52,1790.73,0c2.68-.23,5.78,1.78,8.31,3.37,3.56,2.24,6.75,5.05,10.1,7.62,5.15,4,6.74,11.84,2,16.65a156.17,156.17,0,0,1-20.89,17.14A234.12,234.12,0,0,1,1768,58.24c-6.93,3.81-14.16,7.06-21.24,10.6-4.9,2.45-9.61,5.39-14.68,7.42-20.67,8.26-41.42,16.32-62.2,24.32-8.92,3.44-17.89,6.78-27,9.72-5.25,1.7-10.82,2.41-16.2,3.73-5.78,1.42-11.48,3.15-17.27,4.54-9.14,2.2-18.26,4.56-27.5,6.21-6.58,1.17-10.61,5.76-12.58,10.75-3,7.61-4.07,15.93.2,24,3.64,6.89,7.58,13,15.14,16.52,6.79,3.21,12.87,7.92,19.32,11.89.52.32,1.45-.08,2.16,0,6.89,1.13,13.87,1.52,20.37,4.74,2.6,1.29,6.09.71,9.13,1.23,7.8,1.33,15.54,3.48,23.39,4.06,14,1,28.13,1.3,42.2,1.64,4.68.11,9.38-.75,14.08-.79,2.28,0,4.57.85,7.3,1.4l1.93-2.73a4.62,4.62,0,0,1,1.51.36c.74.52,1.48,1.79,2,1.7,5.43-.88,10.82-2,16.25-3a42.14,42.14,0,0,1,7.29-.74c4.06,0,8-3.27,12.24-.34.36.25,1.56-1,2.44-1.16,1.84-.31,3.73-.34,5.6-.48-.11,1.78.18,3.72-.45,5.29-.47,1.18-2.1,1.9-3.44,3-2.58-2.31-4.32-5.8-8.86-2-2.18,1.83-7.06.46-10.72.51a7.48,7.48,0,0,0-1.69-.11c-5.83,1.6-11.57,3.74-17.5,4.72-4.24.7-8.74-.16-13.12-.24a7.3,7.3,0,0,0-3.21.46c-9.67,4.67-19.91,4.16-30.19,3.53-1.16-.07-2.33.07-3.49,0-5.75-.13-11.57.22-17.22-.58-6.35-.89-12.5-3.1-18.82-4.24-9.3-1.69-18.67-2.94-28-4.4a11.07,11.07,0,0,1-2.84-.76c-5.67-2.57-11.21-5.54-17.67-5.68a.68.68,0,0,1-.44-.21c-4.09-4.64-11.17-3.37-15.44-8.24-4-4.6-9.67-7.78-13.79-12.31-11.05-12.17-12.22-25.81-4.73-40.32.27-.53.14-1.27.29-3.05a68.2,68.2,0,0,1-6.94,1.93c-3.73.62-7.5.92-11.25,1.43-2.29.32-4.55.86-6.83,1.17-6.87.94-13.93,1.15-20.58,2.91-6.07,1.61-11.72.56-17.17-1-10.8-3.08-14.7-13.1-5.52-21.23,6.69-5.94,14.62-10.49,22-15.67,2.28-1.6,4.46-3.34,6.79-4.86,7-4.58,14.72-8.33,20.78-13.91,3.54-3.26,7.58-3.36,11-5.45,3.86-2.35,6.91-6,10.39-9,5-4.32,10.11-8.5,15.08-12.86.68-.6.76-1.89,1.12-2.86-.86-.3-1.81-1-2.58-.83-6.62,1.35-13.17,2.22-19.35,5.92-7.54,4.51-16.14,7.22-24.13,11-3.79,1.8-7.19,4.4-10.85,6.51-8.47,4.88-16.89,9.86-25.52,14.44-3.52,1.87-7.59,2.68-11.31,4.21-1.54.63-2.74,2-4.21,2.87-10,5.82-20,11.77-30.23,17.3-7.85,4.26-16.18,7.65-24,12-7.37,4.13-14.24,9.14-21.48,13.52-4.75,2.88-9.75,5.35-14.68,7.95-6.51,3.43-12.95,7-19.62,10.06a14.31,14.31,0,0,1-7.67.8c-1.62-.24-4.09-2-4.22-3.29a7.18,7.18,0,0,1,2.52-5.39c4.32-3.43,9.18-6.16,13.56-9.52,6.26-4.81,12.21-10,18.43-14.9,7.69-6,15.66-11.71,23.24-17.87,5.61-4.57,10.77-9.67,16.15-14.53l18.14-16.37c2.16-2,4.4-3.83,6.49-5.86,9.72-9.44,19.35-19,29.14-28.34,2.25-2.15,5.47-5.79,8.14-2.14,1.82,2.49,2.31,7.79.87,10.48-4.61,8.62-10.2,16.76-18.76,22.26C1476.39,70.92,1475.79,72.45,1474.47,74.25Z"/><path class="cls-1" d="M1060.16,104.62l2-5.4c12.38-2.7,17.53,7.46,16.41,16.7-1.29,10.56-7.85,18.54-11.39,27.94-2.64,7-5.72,13.87-9,20.6a21.07,21.07,0,0,1-5.55,6.78c-2.07,1.69-4.06.9-4.46-2.11-.22-1.65-.4-3.31-.61-5.06,1-3.24,1.75-6.92,3.21-10.29a105.47,105.47,0,0,1,6.18-11.63c3.82-6.46,7.68-12.9,11.77-19.19C1073.64,115.3,1066.95,105.52,1060.16,104.62Z"/><path class="cls-1" d="M103.62,532.79a25.73,25.73,0,0,1-9.75,13.65A8.05,8.05,0,0,0,92,548.67c-4.76,7.58-9.4,15.24-14.29,22.74-.91,1.39-2.74,2.19-4.19,3.29,2.22,4.19-2.12,5.4-4.38,7.12-1.62,1.23-2.66,1.47-1.82,3.91.47,1.36-.51,3.77-1.61,5-4.8,5.5-7.5,12.79-14,16.77-3.26,2-6.72,3.64-11.39,6.14,6.55-10.29,10-20.53,18.16-28.35,4.49-4.31,6.6-11.05,10-16.59A14.81,14.81,0,0,1,72.59,564C80.19,559,84.83,551.76,89,544.06a24.63,24.63,0,0,1,13.47-11.84c.3-.11.85.43,1.28.67Z"/><path class="cls-1" d="M234.26,402.63c.24-5.76,5.11-7.29,10.14-8.75,1.13-.33,2.88-1.17,3-2,.38-3,2-3.78,4.71-4,2-.19,3.22-1.52,4.65-3.41,2.38-3.16,5.18-7.26,11.66-6.38l-2.71,6.5-4.12-2.52c-.52,2.35-.38,5.17-1.7,6.83-1.88,2.35-4.75,4-7.35,5.65-5.54,3.63-11.23,7-16.75,10.72-1.41.94-3,2.33-3.48,3.83-1.87,6.34-7.23,4.49-11.54,5,1.48,6.86-4.07,10.69-13.71,8.89,2-1.68,3.39-3.93,4.94-4,4.31-.24,5.49-3,6.53-6.24.29-.9.92-2.43,1.39-2.43,4.91,0,6.94-3.3,9.13-6.9C229.55,402.51,232.11,402.89,234.26,402.63Z"/><path class="cls-1" d="M340.07,328.42c-.62,6.82-5.52,10.1-10.44,12.77-1.08.58-4.16-2.53-6.31-3.93l.63-2,7.22-.37.63-4.88c.94,0,2.1.34,2.44-.05,5.1-5.79,14.35-5.46,18.43-13.27l1.68,2.53c.39-.24.86-.37.91-.6,1.38-6.34,6.57-7.74,11.74-8.34,2.77-.32,4.18-.63,5.45-3.46,1.06-2.37,3.89-3.94,5.94-5.87l1.59.8V310l-5-1.46c-4.22,4.23-8,8.43-12.25,12.05-1.72,1.47-4.5,1.74-6.84,2.43-1,.28-2.64-.16-3,.36C350,328.34,344.61,326.86,340.07,328.42Z"/><path class="cls-1" d="M148.68,485,140,484l-.51-1.46c2.44-1.09,5.22-1.75,7.23-3.37,2.58-2.07,5.64-4.57,6.52-7.49,1.2-4,3.64-5.42,6.82-7,2.21-1.11,4-3,5.9-4.75,3.7-3.4,7.39-6.81,10.91-10.38,2.65-2.69,4.54-1.35,7.11,1.17-1.68.86-3.08,1.45-4.33,2.26-2.49,1.61-5.22,3-7.25,5.1-3.32,3.41-6.1,7.35-9.25,10.94-.63.72-2,.72-2.88,1.31-1.19.82-3.32,2.4-3.14,2.79,2.23,4.91-3.14,4.95-4.59,7.4A32.57,32.57,0,0,1,148.68,485Z"/><path class="cls-1" d="M126.07,509.28l-6.59-4.45,17-16.77a8.81,8.81,0,0,1,3-.13c1.11.22,2.07,1.19,3.09,1.83-.63.87-1.24,1.75-1.88,2.61-1,1.33-1.88,2.71-2.94,4a38.72,38.72,0,0,1-4.36,4.57c-.78.66-5.78,4.19-6.18,5.12S126.59,507.82,126.07,509.28Z"/><path class="cls-1" d="M444,267.13c-1.61,5.13-4.07,9.16-10.37,9.13-1.24,0-2.68,1.19-3.68,2.18-2.7,2.67-2.52,2.34-6.73,1.25-1.75-.46-4.43,2.14-4.59-3l10.7-2.09,1.31-4.29,12.77-3.66Z"/><path class="cls-1" d="M202.47,432.72c-3.85,6.66-8,12.88-18.48,10.38l4.34-4.4c1-1,2.45-1.91,3-3.16C193.88,429.55,196.43,428.83,202.47,432.72Z"/><path class="cls-1" d="M385.6,303c-4.77-1.42-4.77-1.42-.1-7.19l4.44,1.52-.53-2.6A89.9,89.9,0,0,1,397.6,291c.78-.28,2,.79,3.07,1.24-.61.83-1.17,1.69-1.83,2.47-1.34,1.57-3.09,2.92-4,4.69-1.07,2.06-1.81,3.55-4.19,1.62C387.15,298.18,386.88,298.28,385.6,303Z"/><path class="cls-1" d="M403.77,292.91c-.49-1.33-1.5-2.73-1.32-4s1.49-2.26,2.54-3.08a45.59,45.59,0,0,1,5.39-3.52c1.29-.74,2.72-1.66,4.1-1.67.75,0,2.17,1.73,2.12,2.61s-1.38,1.94-2.31,2.72c-2,1.66-4,3.28-6.12,4.76a8.59,8.59,0,0,1-2.67.76Z"/><path class="cls-1" d="M1794.48,193.18l4-5.18,1.17.22-.46,6.65-18.24,1.74C1783.7,188.95,1788.1,187.65,1794.48,193.18Z"/><path class="cls-1" d="M284.92,365.36c-1.49,4.11-.88,8.43-6.39,8.82-1.11.08-2.06,2.25-4,4.58-.62-3.5-2-6.27-1.2-7.8C275.44,367.06,279.47,365.57,284.92,365.36Z"/><path class="cls-1" d="M114.82,522.15l-6.23,8.29-2-1.14-3,3.5.09.09c-.33-1.26-.72-2.5-1-3.78-1-4.82,3.14-8.18,8.92-7.3Z"/><path class="cls-1" d="M114.82,522.15l-3.17-.34c-1.5-2.44-2-4.19,1.57-5.67,1.56-.65,2.21-3.49,3.77-6.22l5,.27Z"/><path class="cls-1" d="M309.75,351.93c.55-4-2.86-8.52,3.35-9.42,1.76-.25,4.5-.74,4.61,2.55C317.86,350,314,350.55,309.75,351.93Z"/><path class="cls-1" d="M1046.69,173.11c.31,6.58-4.57,11.57-9.18,10.65a2.46,2.46,0,0,1-1.67-1.49c-.14-.84.06-2.24.63-2.61,1.56-1,3.49-1.48,5.09-2.46A56.84,56.84,0,0,0,1046.69,173.11Z"/><path class="cls-1" d="M294.31,354.45c1.65,3.86,3.19,7.14-.48,9.17-1.73,1-4.3.42-6.48.55l-.19-1.34Z"/><path class="cls-1" d="M302.88,359.33c-1.17-1-3.33-2-4-3.64-.51-1.31.34-3.94,1.48-4.88,1.43-1.17,3.78-1.21,6.49-1.94Z"/><path class="cls-1" d="M1819.79,193.43l-2.92-3.71-2.13,1.77-.71-.58,2.58-5.5C1821.6,189.06,1821.6,189.06,1819.79,193.43Z"/></g></g></svg>